<?xml version="1.0" encoding="UTF-8" standalone="no"?>
<svg
   xmlns:dc="http://purl.org/dc/elements/1.1/"
   xmlns:cc="http://creativecommons.org/ns#"
   xmlns:rdf="http://www.w3.org/1999/02/22-rdf-syntax-ns#"
   xmlns:svg="http://www.w3.org/2000/svg"
   xmlns="http://www.w3.org/2000/svg"
   xmlns:sodipodi="http://sodipodi.sourceforge.net/DTD/sodipodi-0.dtd"
   xmlns:inkscape="http://www.inkscape.org/namespaces/inkscape"
   viewBox="0 0 179.87 179.87"
   version="1.1"
   id="svg51"
   sodipodi:docname="Signum_Badge_JS.svg"
   width="179.87"
   height="179.87"
   inkscape:version="0.92.5 (2060ec1f9f, 2020-04-08)">
  <title
     id="title862">SignumJS</title>
  <metadata
     id="metadata55">
    <rdf:RDF>
      <cc:Work
         rdf:about="">
        <dc:format>image/svg+xml</dc:format>
        <dc:type
           rdf:resource="http://purl.org/dc/dcmitype/StillImage" />
        <dc:title>SignumJS</dc:title>
        <dc:creator>
          <cc:Agent>
            <dc:title></dc:title>
          </cc:Agent>
        </dc:creator>
        <dc:rights>
          <cc:Agent>
            <dc:title></dc:title>
          </cc:Agent>
        </dc:rights>
        <dc:publisher>
          <cc:Agent>
            <dc:title>Signum Network</dc:title>
          </cc:Agent>
        </dc:publisher>
        <cc:license
           rdf:resource="http://creativecommons.org/publicdomain/zero/1.0/" />
      </cc:Work>
      <cc:License
         rdf:about="http://creativecommons.org/publicdomain/zero/1.0/">
        <cc:permits
           rdf:resource="http://creativecommons.org/ns#Reproduction" />
        <cc:permits
           rdf:resource="http://creativecommons.org/ns#Distribution" />
        <cc:permits
           rdf:resource="http://creativecommons.org/ns#DerivativeWorks" />
      </cc:License>
    </rdf:RDF>
  </metadata>
  <sodipodi:namedview
     pagecolor="#ffffff"
     bordercolor="#666666"
     borderopacity="1"
     objecttolerance="10"
     gridtolerance="10"
     guidetolerance="10"
     inkscape:pageopacity="0"
     inkscape:pageshadow="2"
     inkscape:window-width="2560"
     inkscape:window-height="1043"
     id="namedview53"
     showgrid="false"
     inkscape:zoom="1.1285387"
     inkscape:cx="98.964996"
     inkscape:cy="75.309998"
     inkscape:window-x="0"
     inkscape:window-y="0"
     inkscape:window-maximized="1"
     inkscape:current-layer="svg51" />
  <defs
     id="defs7">
    <style
       id="style2">.cls-1{fill:none;}.cls-2{fill:#f7df1e;}.cls-3{clip-path:url(#clip-path);}.cls-4{opacity:0.1;}</style>
    <clipPath
       id="clip-path">
      <rect
         class="cls-1"
         width="179.87"
         height="179.87"
         rx="17.129999"
         id="rect4"
         x="0"
         y="0"
         style="fill:none" />
    </clipPath>
  </defs>
  <g
     id="Ebene_2"
     data-name="Ebene 2">
    <g
       id="Ebene_1-2"
       data-name="Ebene 1">
      <rect
         class="cls-2"
         width="179.87"
         height="179.87"
         rx="17.129999"
         id="rect9"
         x="0"
         y="0"
         style="fill:#f7df1e" />
      <g
         class="cls-3"
         clip-path="url(#clip-path)"
         id="g37">
        <g
           class="cls-4"
           id="g35"
           style="opacity:0.1">
          <rect
             x="93.32"
             y="144.48"
             width="10.21"
             height="29.6"
             transform="rotate(-45,98.426163,159.28055)"
             id="rect11" />
          <path
             d="m 107.13,93.43 6.54,-6.54 a 3.17,3.17 0 0 1 4.47,0 l 19.12,19.11 7.22,-7.22 -19.13,-19.11 a 13.38,13.38 0 0 0 -18.9,0 L 92.69,93.43 105.28,106 112.5,98.78 Z"
             id="path13"
             inkscape:connector-curvature="0" />
          <path
             d="M 82.24,166.56 75.7,160 a 3.16,3.16 0 0 1 0,-4.46 l 19.12,-19.13 -7.22,-7.22 -19.12,19.15 a 13.38,13.38 0 0 0 0,18.9 L 82.24,181 94.82,168.42 87.6,161.2 Z"
             id="path15"
             inkscape:connector-curvature="0" />
          <path
             d="m 144.36,86.89 a 3.17,3.17 0 0 1 4.47,0 l 6.54,6.54 -21.89,21.89 a 3.16,3.16 0 0 1 -4.46,0 l -3.79,-3.78 -7.23,7.22 3.78,3.78 a 13.38,13.38 0 0 0 18.9,0 L 154.44,108.78 169.8,93.43 156,79.67 a 13.38,13.38 0 0 0 -18.9,0 l -3.1,3.14 7.23,7.19 z"
             id="path17"
             inkscape:connector-curvature="0" />
          <rect
             x="99.620003"
             y="104.52"
             width="29.6"
             height="10.21"
             transform="rotate(-45,114.41514,109.6177)"
             id="rect19" />
          <path
             d="m 180.26,118.33 6.54,6.54 a 3.16,3.16 0 0 1 0,4.46 l -19.13,19.13 7.22,7.22 19.11,-19.13 a 13.38,13.38 0 0 0 0,-18.9 l -13.76,-13.76 -12.59,12.58 7.22,7.22 z"
             id="path21"
             inkscape:connector-curvature="0" />
          <rect
             x="158.97"
             y="110.81"
             width="10.21"
             height="29.6"
             transform="rotate(-45,164.07299,125.61874)"
             id="rect23" />
          <path
             d="m 186.8,155.56 a 3.16,3.16 0 0 1 0,4.46 l -6.54,6.54 -21.89,-21.88 a 3.17,3.17 0 0 1 0,-4.47 l 3.78,-3.78 -7.21,-7.22 -3.78,3.79 a 13.38,13.38 0 0 0 0,18.91 L 180.26,181 194,167.24 a 13.38,13.38 0 0 0 0,-18.9 l -3.14,-3.14 -7.22,7.22 z"
             id="path25"
             inkscape:connector-curvature="0" />
          <path
             d="m 75.7,129.33 a 3.16,3.16 0 0 1 0,-4.46 l 6.54,-6.54 21.88,21.88 a 3.17,3.17 0 0 1 0,4.47 l -3.78,3.78 7.22,7.22 3.78,-3.78 a 13.39,13.39 0 0 0 0,-18.91 l -29.1,-29.1 -13.76,13.76 a 13.38,13.38 0 0 0 0,18.9 l 3.13,3.14 7.22,-7.22 z"
             id="path27"
             inkscape:connector-curvature="0" />
          <rect
             x="133.28"
             y="170.17"
             width="29.6"
             height="10.21"
             transform="rotate(-45,148.07694,175.26452)"
             id="rect29" />
          <path
             d="m 155.37,191.46 -6.54,6.54 a 3.17,3.17 0 0 1 -4.47,0 l -19.12,-19.13 -7.24,7.22 19.12,19.13 a 13.38,13.38 0 0 0 18.9,0 l 13.76,-13.76 -12.58,-12.59 -7.2,7.22 z"
             id="path31"
             inkscape:connector-curvature="0" />
          <path
             d="m 118.14,198 a 3.17,3.17 0 0 1 -4.47,0 l -6.54,-6.54 21.87,-21.89 a 3.16,3.16 0 0 1 4.46,0 l 3.78,3.78 7.22,-7.22 -3.78,-3.78 a 13.38,13.38 0 0 0 -18.9,0 l -29.09,29.11 13.76,13.76 a 13.37,13.37 0 0 0 18.9,0 l 3.14,-3.13 -7.22,-7.22 z"
             id="path33"
             inkscape:connector-curvature="0" />
        </g>
      </g>
      <path
         d="m 135.54,150.57 c 2.34,3.82 5.39,6.64 10.79,6.64 4.53,0 7.42,-2.27 7.42,-5.4 0,-3.75 -3,-5.07 -8,-7.26 l -2.73,-1.17 c -7.89,-3.36 -13.14,-7.57 -13.14,-16.48 0,-8.2 6.25,-14.44 16,-14.44 6.95,0 11.95,2.42 15.55,8.75 l -8.43,5.47 c -1.88,-3.36 -3.9,-4.68 -7,-4.68 -3.1,0 -5.23,2 -5.23,4.68 0,3.28 2,4.61 6.72,6.64 l 2.74,1.17 c 9.29,4 14.53,8 14.53,17.18 0,9.85 -7.73,15.24 -18.12,15.24 -10.16,0 -16.72,-4.84 -19.93,-11.18 z m -38.63,1 c 1.72,3 3.28,5.62 7,5.62 3.59,0 5.86,-1.41 5.86,-6.87 v -37.24 h 10.93 v 37.34 c 0,11.32 -6.64,16.47 -16.33,16.47 -8.75,0 -13.83,-4.53 -16.4,-10 z"
         id="path39"
         inkscape:connector-curvature="0" />
      <g
         id="Amazing_Business_Ideas"
         data-name="Amazing Business Ideas">
        <g
           id="Gruppe_9136"
           data-name="Gruppe 9136">
          <path
             id="Pfad_17961"
             data-name="Pfad 17961"
             d="m 18.15,47 a 15.21,15.21 0 0 1 -5.07,-2.38 l 2.24,-5 a 15,15 0 0 0 4.35,2.16 16.31,16.31 0 0 0 5,0.81 8.12,8.12 0 0 0 4.15,-0.83 2.53,2.53 0 0 0 1.34,-2.22 2.1,2.1 0 0 0 -0.79,-1.69 6,6 0 0 0 -2,-1.07 C 26.54,36.5 25.42,36.21 24.01,35.88 A 47.62,47.62 0 0 1 18.68,34.34 8.79,8.79 0 0 1 15.12,31.85 6.69,6.69 0 0 1 13.64,27.3 7.92,7.92 0 0 1 15,22.83 a 9.08,9.08 0 0 1 4,-3.19 16.61,16.61 0 0 1 6.61,-1.18 22.34,22.34 0 0 1 5.33,0.65 15.72,15.72 0 0 1 4.59,1.89 l -2,5 a 15.8,15.8 0 0 0 -7.89,-2.24 7.45,7.45 0 0 0 -4.09,0.89 2.72,2.72 0 0 0 -1.35,2.35 2.31,2.31 0 0 0 1.52,2.18 24.29,24.29 0 0 0 4.66,1.4 46.47,46.47 0 0 1 5.33,1.55 8.84,8.84 0 0 1 3.56,2.44 6.54,6.54 0 0 1 1.48,4.51 7.72,7.72 0 0 1 -1.36,4.46 9.13,9.13 0 0 1 -4.09,3.19 16.68,16.68 0 0 1 -6.63,1.18 A 22.83,22.83 0 0 1 18.15,47 Z"
             inkscape:connector-curvature="0" />
          <path
             id="Pfad_17962"
             data-name="Pfad 17962"
             d="m 39.11,21.47 a 3.46,3.46 0 0 1 0,-5 4,4 0 0 1 2.85,-1 4.11,4.11 0 0 1 2.85,1 3.18,3.18 0 0 1 1.1,2.44 3.51,3.51 0 0 1 -1.1,2.63 4,4 0 0 1 -2.85,1 4,4 0 0 1 -2.85,-1.07 z m -0.32,4.07 h 6.34 v 21.88 h -6.34 z"
             inkscape:connector-curvature="0" />
          <path
             id="Pfad_17963"
             data-name="Pfad 17963"
             d="m 71.57,25.54 v 18.22 q 0,6 -3.13,9 -3.13,3 -9.15,2.93 a 23.07,23.07 0 0 1 -6,-0.77 13.34,13.34 0 0 1 -4.72,-2.24 l 2.52,-4.56 a 10.34,10.34 0 0 0 3.5,1.81 13.81,13.81 0 0 0 4.23,0.67 q 3.3,0 4.86,-1.48 a 5.89,5.89 0 0 0 1.57,-4.49 V 43.69 A 8.88,8.88 0 0 1 58.33,46.41 11.49,11.49 0 0 1 52.8,45 a 10.08,10.08 0 0 1 -4,-3.72 10.44,10.44 0 0 1 -1.46,-5.53 10.42,10.42 0 0 1 1.46,-5.53 10.17,10.17 0 0 1 4,-3.73 11.72,11.72 0 0 1 5.51,-1.32 8.67,8.67 0 0 1 7.24,3.14 V 25.54 Z M 63.7,39.67 a 5.05,5.05 0 0 0 1.61,-3.88 5.06,5.06 0 0 0 -1.61,-3.89 5.85,5.85 0 0 0 -4.13,-1.48 5.91,5.91 0 0 0 -4.15,1.48 5,5 0 0 0 -1.62,3.89 5,5 0 0 0 1.62,3.88 6,6 0 0 0 4.15,1.49 5.86,5.86 0 0 0 4.13,-1.49 z"
             inkscape:connector-curvature="0" />
          <path
             id="Pfad_17964"
             data-name="Pfad 17964"
             d="m 95.31,27.65 q 2.5,2.45 2.5,7.24 V 47.42 H 91.46 V 35.87 A 5.69,5.69 0 0 0 90.32,32 4.16,4.16 0 0 0 87,30.7 5.08,5.08 0 0 0 83.18,32.19 6.14,6.14 0 0 0 81.75,36.6 V 47.42 H 75.44 V 25.54 h 6.06 v 2.56 a 8.53,8.53 0 0 1 3.13,-2.1 11.12,11.12 0 0 1 4.11,-0.75 9,9 0 0 1 6.57,2.4 z"
             inkscape:connector-curvature="0" />
          <path
             id="Pfad_17965"
             data-name="Pfad 17965"
             d="m 123.56,25.54 v 21.88 h -6 v -2.6 a 8.42,8.42 0 0 1 -3,2.17 9.51,9.51 0 0 1 -3.79,0.76 9.3,9.3 0 0 1 -6.83,-2.49 q -2.52,-2.48 -2.52,-7.36 V 25.54 h 6.34 V 37 q 0,5.28 4.44,5.28 a 4.77,4.77 0 0 0 3.66,-1.48 6.27,6.27 0 0 0 1.38,-4.41 V 25.54 Z"
             inkscape:connector-curvature="0" />
          <path
             id="Pfad_17966"
             data-name="Pfad 17966"
             d="m 162,27.63 c 1.61,1.61 2.42,4 2.42,7.26 v 12.53 h -6.35 V 35.87 A 5.91,5.91 0 0 0 157,32 a 3.81,3.81 0 0 0 -3.07,-1.29 4.56,4.56 0 0 0 -3.54,1.45 6.25,6.25 0 0 0 -1.3,4.29 v 11 h -6.34 V 35.87 c 0,-3.44 -1.39,-5.17 -4.15,-5.17 a 4.51,4.51 0 0 0 -3.5,1.45 6.2,6.2 0 0 0 -1.3,4.29 v 11 h -6.35 v -21.9 h 6.06 v 2.52 a 8.1,8.1 0 0 1 3,-2.12 10.37,10.37 0 0 1 3.89,-0.73 9.49,9.49 0 0 1 4.19,0.92 7.37,7.37 0 0 1 3,2.66 9,9 0 0 1 3.41,-2.64 10.91,10.91 0 0 1 4.5,-0.94 8.85,8.85 0 0 1 6.5,2.42 z"
             inkscape:connector-curvature="0" />
        </g>
      </g>
    </g>
  </g>
</svg>
